<svg xmlns="http://www.w3.org/2000/svg" viewBox="0 0 160 25"><path d="M61.9 4.8v5.9h-6.6V4.8h-3.7v15.4h3.7V14h6.6v6.2h3.7V4.8h-.2zm17.1 0l-3.8 6.1-3.8-6.1H67l6.4 10.1v5.3H77v-5.3l6.3-10.1H83zm16.1 0v11.3c0 .4-.3.8-.8.8h-5.9V4.8h-3.7v15.4h10.8c1 0 1.7-.3 2.3-.8.6-.6.8-1.3.8-2.3V4.8h-3.5zm17.9 0h-10.8v15.4h3.7V8.1h5.9c.5 0 .8.4.8.8v11.3h3.7V8c0-1-.3-1.7-.8-2.3-.7-.6-1.5-.9-2.5-.9zm17.4 0h-10.8v15.4h10.8c1 0 1.7-.3 2.3-.8.6-.6.8-1.3.8-2.3V8c0-1-.3-1.7-.8-2.3-.6-.6-1.3-.9-2.3-.9zm-.5 4.1V16c0 .4-.3.8-.8.8h-5.9V8.1h5.9c.5 0 .8.4.8.8zm10-4.1c-1 0-1.7.3-2.3.8-.6.6-.8 1.3-.8 2.3v12.3h3.7v-4.8h6.7v4.8h3.7V4.8h-11zm7.2 3.3v4h-6.7V8.9c0-.4.3-.8.8-.8h5.9zm7.2-3.3h3.7v15.4h-3.7zM22.9 23.2c11.6 0 20.9-4.8 20.9-10.7 0-5.9-9.4-10.7-20.9-10.7C11.4 1.8 2 6.6 2 12.5c0 5.9 9.4 10.7 20.9 10.7zm4-5.2c-.3.8-1 2.5-2.3 3.2-.4.2-.9.3-1.4.3H23c-3.9 0-7.5-.5-10.5-1.5h-.1c-.3-.1-.4-.2-.4-.4 0-.1.1-.2.2-.3l.2-.2c.7-.6 2.8-2.1 6.7-3.6 1.4-.5 3.1-1.2 4.9-1.6 1-.2 5-.8 2.9 4.1zM37.5 7.2c.1-.1.2-.2.4-.3.1 0 .2 0 .4.1 2.5 1.5 3.9 3.4 3.9 5.5 0 3.7-4.8 6.9-11.6 8.3-.4.1-.7.1-.8 0-.1-.1-.1-.2 0-.3 0-.1.1-.1.2-.3 3.7-4.4 6.5-10.8 7.3-12.7.1-.1.1-.3.2-.3zM19.1 7c.3-.8 1-2.5 2.3-3.2.4-.2.9-.3 1.4-.3h.2c3.9 0 7.5.5 10.5 1.5h.1c.3.1.4.2.4.3 0 .1-.1.2-.2.3l-.2.2c-.7.6-2.8 2.1-6.7 3.6-1.4.6-3.1 1.2-4.9 1.6-1.1.3-5 .9-2.9-4zm-3.8-2.8c.4-.1.7-.1.8 0 .1.1.1.2 0 .3 0 .1-.1.1-.2.3-3.7 4.4-6.5 10.8-7.3 12.7-.1.1-.1.3-.2.3-.1.1-.2.2-.4.3-.1 0-.2 0-.4-.1-2.5-1.5-3.9-3.4-3.9-5.5 0-3.7 4.8-6.9 11.6-8.3z" fill="#FFF"/></svg>
